<?xml version="1.0" encoding="utf-8"?>
<!-- Generator: Adobe Illustrator 23.1.0, SVG Export Plug-In . SVG Version: 6.00 Build 0)  -->
<svg version="1.1" id="Capa_1" xmlns="http://www.w3.org/2000/svg" xmlns:xlink="http://www.w3.org/1999/xlink" x="0px" y="0px"
	 viewBox="0 0 800 800" style="enable-background:new 0 0 800 800;" xml:space="preserve">
<style type="text/css">
	.st0{fill:#E7E9EA;}
</style>
<title>home</title>
<path class="st0" d="M599.2,314.9l90.6,82.8c11,10.1,7.8,18-7,18h-68V632c0,14.8-12.5,28.1-27.3,28.1h-118V508.6
	c0-14.9-13.3-28.1-28.1-28.1h-74.2c-14.9,0-28.1,13.3-28.1,28.1v151.6h-118c-14.9,0-28.1-13.3-28.1-28.1V415.6h-67.2
	c-14.8,0-18-7.8-7-18L383.6,157c10.9-10.1,29.7-10.1,41.4,0l60.2,53.9v-43c0-14.8,13.3-28.1,28.1-28.1h58.6
	c14.8,0,27.3,13.3,27.3,28.1L599.2,314.9L599.2,314.9z"/>
</svg>
