<?xml version="1.0" encoding="utf-8"?>
<!-- Generator: Adobe Illustrator 23.1.0, SVG Export Plug-In . SVG Version: 6.00 Build 0)  -->
<svg version="1.1" id="Capa_1" xmlns="http://www.w3.org/2000/svg" xmlns:xlink="http://www.w3.org/1999/xlink" x="0px" y="0px"
	 viewBox="0 0 800 800" style="enable-background:new 0 0 800 800;" xml:space="preserve">
<style type="text/css">
	.st0{fill-rule:evenodd;clip-rule:evenodd;fill:#E7E9EA;}
</style>
<g id="SVGRepo_bgCarrier">
</g>
<g id="SVGRepo_tracerCarrier">
</g>
<g id="SVGRepo_iconCarrier">
	<path class="st0" d="M100.4,305c-0.4,18-0.4,38.4-0.4,61.6v66.7c0,94.3,0,141.4,29.3,170.7c29.3,29.3,76.4,29.3,170.7,29.3h200
		c94.3,0,141.4,0,170.7-29.3C700,574.8,700,527.6,700,433.3v-66.7c0-23.3,0-43.7-0.4-61.6L432.4,453.5c-20.1,11.2-44.6,11.2-64.8,0
		L100.4,305z M108.1,234.3c2.8,0.7,5.5,1.8,8.1,3.2L400,395.2l283.8-157.7c2.6-1.4,5.3-2.5,8.1-3.2c-4.3-15.8-11-28.2-21.2-38.4
		c-29.3-29.3-76.4-29.3-170.7-29.3H300c-94.3,0-141.4,0-170.7,29.3C119.1,206.2,112.4,218.5,108.1,234.3z"/>
</g>
</svg>
