<?xml version="1.0" encoding="utf-8"?>
<!-- Generator: Adobe Illustrator 23.1.0, SVG Export Plug-In . SVG Version: 6.00 Build 0)  -->
<svg version="1.1" id="Capa_1" xmlns="http://www.w3.org/2000/svg" xmlns:xlink="http://www.w3.org/1999/xlink" x="0px" y="0px"
	 viewBox="0 0 800 800" style="enable-background:new 0 0 800 800;" xml:space="preserve">
<style type="text/css">
	.st0{fill:#E7E9EA;}
</style>
<title></title>
<g id="about">
	<path class="st0" d="M400,400c96.6,0,175-78.4,175-175S496.6,50,400,50s-175,78.4-175,175S303.4,400,400,400z M400,100
		c69,0,125,56,125,125s-56,125-125,125s-125-56-125-125S331,100,400,100z"/>
	<path class="st0" d="M425,450h-50c-151.9,0-275,123.1-275,275c0,13.8,11.2,25,25,25h550c13.8,0,25-11.2,25-25
		C700,573.1,576.9,450,425,450z M151.5,700c12.7-113.8,109-199.9,223.5-200h50c114.5,0.1,210.8,86.2,223.5,200H151.5z"/>
</g>
</svg>
