<?xml version="1.0" encoding="utf-8"?>
<!-- Generator: Adobe Illustrator 23.1.0, SVG Export Plug-In . SVG Version: 6.00 Build 0)  -->
<svg version="1.1" id="Capa_1" xmlns="http://www.w3.org/2000/svg" xmlns:xlink="http://www.w3.org/1999/xlink" x="0px" y="0px"
	 viewBox="0 0 800 800" style="enable-background:new 0 0 800 800;" xml:space="preserve">
<style type="text/css">
	.st0{display:none;}
	.st1{fill:#E7E9EA;}
</style>
<g id="grid_system" class="st0">
</g>
<g id="_icons">
	<path class="st1" d="M466.7,333.3h-33.3V300c0-20-13.3-33.3-33.3-33.3c-20,0-33.3,13.3-33.3,33.3v33.3h-33.3
		c-20,0-33.3,13.3-33.3,33.3c0,20,13.3,33.3,33.3,33.3h33.3v33.3c0,20,13.3,33.3,33.3,33.3c20,0,33.3-13.3,33.3-33.3V400h33.3
		c20,0,33.3-13.3,33.3-33.3C500,346.7,486.7,333.3,466.7,333.3z"/>
	<path class="st1" d="M633.3,100H600H200h-33.3c-20,0-33.3,13.3-33.3,33.3s13.3,33.3,33.3,33.3v470c0,23.3,13.3,46.7,36.7,60
		c10,6.7,20,6.7,30,6.7c13.3,0,26.7-3.3,36.7-10l130-86.7l130,86.7c20,13.3,46.7,16.7,70,3.3c23.3-10,36.7-33.3,36.7-60v-470
		c20,0,33.3-13.3,33.3-33.3S653.3,100,633.3,100z M566.7,636.7L566.7,636.7l-130-86.7c-10-6.7-23.3-10-36.7-10
		c-13.3,0-26.7,3.3-36.7,10l-130,86.7v-470h333.3V636.7L566.7,636.7z"/>
</g>
</svg>
